<?xml version="1.0" encoding="utf-8"?>
<!-- Generator: Adobe Illustrator 21.1.0, SVG Export Plug-In . SVG Version: 6.00 Build 0)  -->
<svg version="1.1" id="Layer_1" xmlns="http://www.w3.org/2000/svg" xmlns:xlink="http://www.w3.org/1999/xlink" x="0px" y="0px"
	 viewBox="0 0 1240.3 480" style="enable-background:new 0 0 1240.3 480;" xml:space="preserve">
<style type="text/css">
	.st0{fill:#090907;}
	.st1{fill:#FFFFFF;}
	.st2{font-family:'Eraser-Regular';}
	.st3{font-size:18.5015px;}
	.st4{font-size:32.8916px;}
</style>
<title>Asset 1</title>
<path class="st0" d="M1240.3,222.3c-5-88-48.4-169.3-118.8-222.3H118.8C48.4,53,5,134.3,0,222.3v34.3C5,345.2,49,427,120.1,480h1000
	c71.1-53,115.1-134.8,120.1-223.3v-34.4H1240.3z"/>
<text transform="matrix(0.866 -0.5 0.5 0.866 202.4014 363.7975)" class="st1 st2 st3">+</text>
<text transform="matrix(0.866 -0.5 0.5 0.866 484.4468 344.0624)" class="st1 st2 st3">+</text>
<text transform="matrix(0.866 -0.5 0.5 0.866 137.8517 148.3573)" class="st1 st2 st3">+</text>
<text transform="matrix(0.866 -0.5 0.5 0.866 314.2331 100.6421)" class="st1 st2 st4">+</text>
<text transform="matrix(0.866 -0.5 0.5 0.866 121.8171 413.5231)" class="st1 st2 st4">+</text>
<path id="Shape" class="st1" d="M482.2,116.7c0.2,0,0.4-0.2,0.4-0.4c0-0.6,0.2-1.1,0.6-1.6c0.2-0.2,0.2-0.4,0-0.6
	c-0.2-0.2-0.4-0.2-0.6,0c-0.6,0.6-0.9,1.3-0.9,2.1C481.8,116.5,482,116.7,482.2,116.7z M495.4,124.6l-5.2-4.4
	c3.5-2.3,6.1-5.3,5.1-7.2c-0.8-1.6-3.8-1.8-7.7-0.5c-0.9-0.5-2-0.8-2.9-0.8c-2.5,0-4.5,2-4.5,4.5v0c-3.4,2.4-4.9,4.9-4.1,6.5
	c0.5,0.9,1.6,1.3,3.2,1.3c1.6,0,3.5-0.4,5.7-1.2l1.2,8.2c0,0.2,0.2,0.4,0.4,0.4c0,0,0,0,0.1,0c0.2,0,0.4-0.2,0.3-0.5l-1.2-8.4
	c0.6-0.3,1.3-0.5,1.9-0.9c0.6-0.3,1.3-0.7,1.9-1.1c0,0,0,0,0,0l5.3,4.5c0.1,0.1,0.2,0.1,0.3,0.1c0.1,0,0.2,0,0.3-0.1
	C495.6,125,495.6,124.8,495.4,124.6z M481,116.3c0-2,1.7-3.7,3.7-3.7c1.2,0,2.8,0.6,3.4,1.4c0.2,0.3,0.2,0.5,0.1,0.8
	c-0.7,1.7-5,3.9-6.8,3.5c-0.4-0.1-0.4-1.2-0.4-1.8V116.3z M487.2,121c-5.3,2.7-9.7,2.9-10.5,1.5c-0.5-1.1,0.8-3.1,3.4-5.1
	c0.1,0.8,0.3,1.5,1,1.7c0.2,0.1,0.5,0.1,0.7,0.1c2.4,0,6.3-2.1,7-4c0.2-0.5,0.1-1.1-0.2-1.6c-0.1-0.1-0.2-0.3-0.3-0.4
	c3.1-0.9,5.6-0.8,6.2,0.3C495.3,114.9,492.5,118.3,487.2,121z"/>
<path id="Shape_1_" class="st1" d="M836,249.5c0,0,0-0.1,0-0.1c-0.3-5.2-4.6-9.3-9.8-9.3c-3.3,0-6.3,1.7-8.1,4.2
	c-0.1,0-0.1,0.1-0.1,0.2c-1.1,1.6-1.7,3.5-1.7,5.5c0,5.4,4.4,9.9,9.9,9.9c2,0,3.9-0.6,5.5-1.7c0.1,0,0.1-0.1,0.2-0.1
	c2.5-1.8,4.2-4.7,4.2-8.1C836,249.8,836,249.6,836,249.5C836,249.5,836,249.5,836,249.5z M835.1,250.7h-6.9c-0.2,0-0.4,0.2-0.4,0.4
	c0,0.2,0.2,0.4,0.4,0.4h6.8c-0.1,0.3-0.1,0.6-0.2,0.8c0,0,0,0-0.1,0h-4.9c-0.2,0-0.4,0.2-0.4,0.4c0,0.2,0.2,0.4,0.4,0.4h4.7
	c-0.1,0.3-0.2,0.6-0.4,0.8h-10.1c-0.2,0-0.4,0.2-0.4,0.4s0.2,0.4,0.4,0.4h9.6c-0.2,0.3-0.4,0.6-0.6,0.8h-4.9c-0.2,0-0.4,0.2-0.4,0.4
	c0,0.2,0.2,0.4,0.4,0.4h4.1c-0.3,0.3-0.6,0.6-1,0.8h-5.6c-0.2,0-0.4,0.2-0.4,0.4c0,0.2,0.2,0.4,0.4,0.4h4.2
	c-1.1,0.5-2.4,0.8-3.7,0.8c-5,0-9-4.1-9-9c0-1.2,0.2-2.3,0.6-3.3h1.4c0.2,0,0.4-0.2,0.4-0.4c0-0.2-0.2-0.4-0.4-0.4h-1.1
	c0.1-0.3,0.3-0.6,0.5-0.8h4.7c0.2,0,0.4-0.2,0.4-0.4c0-0.2-0.2-0.4-0.4-0.4h-4.1c0.2-0.3,0.5-0.6,0.8-0.8c0,0,0,0,0,0h2.5
	c0.2,0,0.4-0.2,0.4-0.4c0-0.2-0.2-0.4-0.4-0.4h-1.5c1.5-1,3.3-1.6,5.2-1.6c4.7,0,8.6,3.6,9,8.2h-2c-0.2,0-0.4,0.2-0.4,0.4
	c0,0.2,0.2,0.4,0.4,0.4h2.1C835.2,250.1,835.1,250.4,835.1,250.7z"/>
<path id="Shape_2_" class="st1" d="M310.9,361.3c-0.1,0-0.2,0-0.3,0c0,0,0,0-0.1,0c0,0-0.1,0-0.1,0c-4.1,0.2-7.4,3.6-7.4,7.8
	c0,4.3,3.5,7.8,7.8,7.8c0.3,0,0.7,0,1-0.1c0,0,0,0,0,0c0,0,0,0,0.1,0c2.2-0.3,4.1-1.5,5.3-3.2c0,0,0.1-0.1,0.1-0.1
	c0.8-1.2,1.3-2.7,1.3-4.4C318.8,364.8,315.3,361.3,310.9,361.3z M310.2,362.2c0,0.3,0,0.7,0.1,1c0.1,0.2,0.5,0.9,1,0.9
	c0.3,0,0.5-0.3,0.7-0.5c0,0,0,0,0,0c0,0,0,0.1,0.1,0.1c0.1,0.1,0.2,0.3,0.3,0.4c0.2,0.1,0.4,0.2,0.6,0.3c0.1,0,0.2,0.1,0.3,0.1
	c0,0,0,0,0,0c-0.1,0.1-0.3,0.2-0.4,0.3c-0.2,0.3-0.4,0.7-0.5,1.2c-0.2,0.5-0.4,1.2-0.6,1.3c-0.1,0-0.3,0-0.4-0.1
	c-0.4-0.1-0.9-0.2-1.1,0.3c-0.1,0.3,0,0.6,0.2,0.9c-0.2-0.1-0.3-0.3-0.5-0.4c-0.6-0.4-1.3-0.9-1.5-1.3c-0.2-0.3-0.5-0.9-0.6-1.1
	c0-0.1,0-0.4,0-0.7c0.1-0.5,0.1-1.1-0.1-1.4c-0.1-0.1-0.3-0.2-0.4-0.2C308.2,362.6,309.1,362.3,310.2,362.2z M312.8,374.5
	c-0.1,0.3-0.7,1.1-1.1,1.6c-0.3,0-0.5,0-0.8,0c-3.9,0-7-3.1-7-7c0-2.1,0.9-4,2.4-5.3c0.2,0.1,0.3,0.1,0.5,0.1c0.1,0,0.2,0,0.2,0
	c0,0.2,0,0.5-0.1,0.8c-0.1,0.4-0.1,0.7,0,1c0.1,0.4,0.5,1.1,0.7,1.4c0.3,0.5,1,1,1.7,1.5c0.9,0.6,2,1.4,2.1,2c0,0-0.1,0.1-0.1,0.1
	c-0.2,0.1-0.5,0.3-0.5,0.7c0,0.6,0.6,1,1.2,1.4c0.3,0.2,0.7,0.5,0.8,0.7C312.9,373.6,312.9,374.2,312.8,374.5z M316.7,373.1
	c-0.9,1.3-2.2,2.2-3.7,2.7c0.3-0.4,0.6-0.8,0.6-1.1c0.1-0.4,0.2-1.1,0-1.6c-0.2-0.4-0.6-0.7-1.1-1c-0.2-0.2-0.7-0.5-0.8-0.7
	c0,0,0.1,0,0.1-0.1c0.2-0.1,0.5-0.3,0.5-0.7c0-0.4-0.2-0.8-0.6-1.2c0.2,0.1,0.5,0.3,0.6,0.3c0.3,0.1,0.7,0.1,1.2,0
	c0.3,0,0.6-0.1,0.7,0c0,0,0.1,0.2,0.2,0.2c0.1,0.2,0.2,0.3,0.4,0.4c0.2,0.2,0.6,0.2,1,0.3c0.3,0,0.8,0.1,0.8,0.2
	C316.9,371.1,316.8,372.1,316.7,373.1z M317.6,371.2c0-0.3-0.1-0.6-0.2-0.7c-0.3-0.4-0.8-0.5-1.4-0.6c-0.3,0-0.6-0.1-0.7-0.2
	c0,0-0.1-0.1-0.2-0.2c-0.2-0.2-0.3-0.4-0.5-0.5c-0.3-0.1-0.7-0.1-1.2,0c-0.3,0-0.6,0.1-0.8,0c-0.6-0.2-1.4-0.9-1.6-1.2
	c0,0,0.1,0,0.1,0c0.3,0.1,0.7,0.1,0.9,0c0.5-0.3,0.7-1,1-1.7c0.1-0.4,0.3-0.8,0.4-0.9c0,0,0.1-0.1,0.2-0.1c0.3-0.2,0.6-0.4,0.5-0.8
	c-0.1-0.5-0.6-0.6-1.1-0.8c-0.1,0-0.3-0.1-0.4-0.1c0,0-0.1-0.1-0.1-0.2c-0.2-0.2-0.4-0.5-0.7-0.5c-0.3,0-0.5,0.3-0.7,0.5
	c0,0,0,0,0,0c-0.1-0.1-0.2-0.2-0.2-0.3c0-0.1,0-0.5,0-0.7c3.8,0,6.9,3.2,6.9,7C317.9,369.8,317.8,370.5,317.6,371.2z M320.4,357.2
	c-1.4,0-2.5,1.1-2.5,2.5c0,1.4,1.1,2.5,2.5,2.5s2.5-1.1,2.5-2.5C322.9,358.3,321.8,357.2,320.4,357.2z M320.4,361.3
	c-0.9,0-1.6-0.7-1.6-1.6s0.7-1.6,1.6-1.6s1.6,0.7,1.6,1.6S321.3,361.3,320.4,361.3z"/>
<path id="Shape_3_" class="st1" d="M1078.7,289.4l-2.5,1.6c-0.1,0.1-0.2,0.2-0.2,0.3c0,0.1,0,0.2,0.1,0.3l1.6,1.6
	c0.1,0.1,0.2,0.1,0.3,0.1c0,0,0,0,0,0c0.1,0,0.2-0.1,0.3-0.2l1.6-2.5c0.1-0.2,0.1-0.4-0.1-0.5l-0.8-0.8
	C1079.1,289.3,1078.9,289.3,1078.7,289.4z M1079.3,290.6l-1.2,1.8l-0.9-0.9l1.8-1.2L1079.3,290.6z M1090.6,279.1
	c-2.8-2.8-7.6-2.8-10.4,0c0,0,0,0,0,0c-0.1,0.1-0.1,0.1-0.2,0.2c0,0,0,0,0,0c0,0,0,0,0,0.1c0,0,0,0,0,0.1c0,0,0,0,0,0.1
	c0,0,0,0.1,0,0.1c0,0,0,0,0,0l0.5,8.4l-0.7-0.7c-0.4-0.4-1-0.5-1.5-0.2l-5.1,3c-0.1,0.1-0.2,0.2-0.2,0.3c0,0.1,0,0.3,0.1,0.3
	l5.8,5.8c0.1,0.1,0.2,0.1,0.3,0.1c0,0,0,0,0.1,0c0.1,0,0.2-0.1,0.3-0.2l3-5.1c0.3-0.5,0.2-1.1-0.2-1.5l-0.7-0.7l8.2,0.3h0
	c0.1,0,0.1,0,0.2,0c0.1,0,0.1-0.1,0.1-0.1c0,0,0,0,0,0C1092.7,286.8,1093.8,282.3,1090.6,279.1z M1081.6,290.5L1081.6,290.5
	c0.1,0.1,0.2,0.3,0.1,0.5l-2.7,4.7l-5-5l4.7-2.8c0.2-0.1,0.4-0.1,0.5,0.1L1081.6,290.5z M1081.1,287l-0.4-7.3
	c0.7-0.6,1.8-0.6,2.5,0.1c0.3,0.3,0.5,0.8,0.5,1.3c0,0.5-0.2,0.9-0.6,1.3c0,0,0,0,0,0.1c0,0,0,0,0,0.1L1081.1,287z M1083.7,283
	c0.7-0.7,1.9-0.7,2.6,0c0.7,0.7,0.7,1.8,0,2.5l-4.7,2.3L1083.7,283z M1089.6,288.7l-7.2-0.3l4.3-2.1c0,0,0,0,0.1,0c0,0,0,0,0.1,0
	c0,0,0,0,0,0c0.7-0.7,1.9-0.7,2.6,0c0.4,0.3,0.5,0.8,0.5,1.3C1090,288,1089.8,288.4,1089.6,288.7z M1090,285.7
	c-0.6-0.7-1.6-0.9-2.5-0.7c0.2-0.9,0-1.8-0.7-2.5c-0.7-0.7-1.6-0.9-2.5-0.7c0-0.2,0.1-0.4,0.1-0.6c0-0.7-0.3-1.4-0.8-1.9
	c-0.4-0.4-0.9-0.6-1.5-0.7c2.5-1.3,5.7-0.9,7.7,1.1c2.2,2.2,2.1,5.1,0.8,7.4C1090.7,286.5,1090.4,286,1090,285.7z"/>
<path id="Shape_4_" class="st1" d="M674.8,391.2c0-0.2-0.2-0.3-0.4-0.3h-1.6c-0.2,0-0.4,0.1-0.4,0.3l-0.8,3.3c0,0.1,0,0.3,0.1,0.4
	s0.2,0.2,0.3,0.2h3.3c0.1,0,0.2-0.1,0.3-0.2c0.1-0.1,0.1-0.2,0.1-0.4L674.8,391.2z M672.5,394.2l0.6-2.5h1l0.6,2.5H672.5z
	 M683,405.9l-2.5-5.8c0,0,0,0,0,0c0,0-0.1-0.1-0.1-0.1c0,0,0,0,0,0c0,0,0,0,0,0l-2.3-1.5c0-0.4-0.2-0.7-0.4-1h0.8
	c0.1,0,0.2-0.1,0.3-0.2c0.1-0.1,0.1-0.2,0.1-0.3l-1.5-6.8c-0.1-0.6-0.6-1-1.2-1H674v-2.1c0-0.2-0.2-0.4-0.4-0.4s-0.4,0.2-0.4,0.4
	v2.1h-2.2c-0.6,0-1.1,0.4-1.2,1l-1.5,6.8c0,0.1,0,0.2,0.1,0.3c0.1,0.1,0.2,0.2,0.3,0.2h0.8c-0.2,0.3-0.4,0.6-0.4,1l-2.3,1.5
	c0,0,0,0,0,0c0,0,0,0,0,0c0,0-0.1,0.1-0.1,0.1c0,0,0,0,0,0l-2.5,5.8c-0.1,0.2,0,0.4,0.2,0.5c0.1,0,0.1,0,0.2,0
	c0.2,0,0.3-0.1,0.4-0.2l0.9-2.2h3.2v0.4c0,0.2,0.2,0.4,0.4,0.4h3.7v1.2c0,0.2,0.2,0.4,0.4,0.4s0.4-0.2,0.4-0.4v-1.2h3.7
	c0.2,0,0.4-0.2,0.4-0.4V404h3.2l0.9,2.2c0.1,0.2,0.2,0.2,0.4,0.2c0.1,0,0.1,0,0.2,0C683,406.4,683.1,406.1,683,405.9z M666.2,403.2
	l0.9-2.1l1.5,2.1H666.2z M669.1,402.4l-1.5-2l1.5-1V402.4z M669.2,396.6l1.4-6.3c0-0.2,0.2-0.3,0.4-0.3h5.3c0.2,0,0.4,0.1,0.4,0.3
	l1.4,6.3H669.2z M677.3,404H674v-5.3c0-0.2-0.2-0.4-0.4-0.4s-0.4,0.2-0.4,0.4v5.3h-3.3v-5.3c0-0.7,0.6-1.2,1.2-1.2h4.9
	c0.7,0,1.2,0.6,1.2,1.2V404z M678.1,399.5l1.5,1l-1.5,2V399.5z M678.5,403.2l1.5-2.1l0.9,2.1H678.5z"/>
<path id="Shape_5_" class="st1" d="M1013.9,121.5c-0.2,0-0.4-0.1-0.6-0.2l-5.6-5.6c-0.3-0.3-0.3-0.8,0-1.2l12.4-12.4
	c1.6-1.6,2.8-2.3,4.3-2.5l2.1-0.2c0.9-0.1,1.7,0.2,2.3,0.8c0.6,0.6,0.9,1.5,0.8,2.3l-0.2,2.1c-0.2,1.4-0.9,2.6-2.5,4.3l-12.4,12.4
	C1014.4,121.4,1014.2,121.5,1013.9,121.5L1013.9,121.5z M1009.5,115.1l4.5,4.5l11.8-11.8c1.5-1.5,1.9-2.4,2-3.3l0.2-2.1
	c0-0.4-0.1-0.7-0.3-1c-0.3-0.3-0.6-0.4-1-0.4l-2.1,0.2c-0.9,0.1-1.7,0.5-3.3,2L1009.5,115.1L1009.5,115.1z M1018.1,125.7
	c-0.2,0-0.4-0.1-0.6-0.2l-4.1-4.1c-0.3-0.3-0.3-0.8,0-1.2c0.3-0.3,0.8-0.3,1.2,0l3.5,3.5l1.1-1.1c0.4-0.4,0.6-0.9,0.6-1.4v-7.1
	c0-0.5,0.4-0.8,0.8-0.8s0.8,0.4,0.8,0.8v7.1c0,1-0.4,1.9-1.1,2.6l-1.6,1.6C1018.5,125.6,1018.3,125.7,1018.1,125.7L1018.1,125.7z
	 M1011.1,118.7c-0.2,0-0.4-0.1-0.6-0.2c-0.3-0.3-0.3-0.8,0-1.2l5.3-5.3c0.3-0.3,0.8-0.3,1.2,0c0.3,0.3,0.3,0.8,0,1.2l-5.3,5.3
	C1011.5,118.6,1011.3,118.7,1011.1,118.7z M1025.2,106.2c-0.2,0-0.4-0.1-0.6-0.2l-1.6-1.6c-0.3-0.3-0.3-0.8,0-1.2
	c0.3-0.3,0.8-0.3,1.2,0l1.6,1.6c0.3,0.3,0.3,0.8,0,1.2C1025.7,106.2,1025.4,106.2,1025.2,106.2z M1008.2,115.8
	c-0.2,0-0.4-0.1-0.6-0.2l-4.1-4.1c-0.3-0.3-0.3-0.8,0-1.2l1.6-1.6c0.7-0.7,1.6-1.1,2.6-1.1h7.1c0.5,0,0.8,0.4,0.8,0.8
	c0,0.5-0.4,0.8-0.8,0.8h-7.1c-0.5,0-1,0.2-1.4,0.6l-1.1,1.1l3.5,3.5c0.3,0.3,0.3,0.8,0,1.2C1008.7,115.8,1008.5,115.8,1008.2,115.8z
	"/>
</svg>
