<?xml version="1.0" encoding="UTF-8"?>
<svg width="3124px" height="1024px" viewBox="0 0 3124 1024" version="1.1" xmlns="http://www.w3.org/2000/svg" xmlns:xlink="http://www.w3.org/1999/xlink">
    <!-- Generator: Sketch 44.1 (41455) - http://www.bohemiancoding.com/sketch -->
    <title>Group 7</title>
    <desc>Created with Sketch.</desc>
    <defs></defs>
    <g id="Page-1" stroke="none" stroke-width="1" fill="none" fill-rule="evenodd">
        <g id="200-Layout_L" transform="translate(-2992.000000, 0.000000)">
            <g id="Group-7" transform="translate(2992.000000, -152.000000)">
                <rect id="Rectangle-3" fill="#090907" x="1060" y="152" width="1400" height="1024"></rect>
                <circle id="Oval-2-Copy-2" fill="#090907" cx="664" cy="664" r="664"></circle>
                <circle id="Oval-2-Copy-3" fill="#090907" cx="2460" cy="664" r="664"></circle>
                <text id="+" transform="translate(397.258330, 943.016660) rotate(-30.000000) translate(-397.258330, -943.016660) " font-family="Eraser-Regular, Eraser" font-size="45" font-weight="normal" fill="#FFFFFF">
                    <tspan x="384.25833" y="961.01666">+</tspan>
                </text>
                <text id="+-copy-2" transform="translate(1083.258330, 895.016660) rotate(-30.000000) translate(-1083.258330, -895.016660) " font-family="Eraser-Regular, Eraser" font-size="45" font-weight="normal" fill="#FFFFFF">
                    <tspan x="1070.25833" y="913.01666">+</tspan>
                </text>
                <text id="+-copy-3" transform="translate(240.258330, 419.016660) rotate(-30.000000) translate(-240.258330, -419.016660) " font-family="Eraser-Regular, Eraser" font-size="45" font-weight="normal" fill="#FFFFFF">
                    <tspan x="227.25833" y="437.01666">+</tspan>
                </text>
                <text id="+-copy" transform="translate(671.601597, 286.020181) rotate(-30.000000) translate(-671.601597, -286.020181) " font-family="Eraser-Regular, Eraser" font-size="80" font-weight="normal" fill="#FFFFFF">
                    <tspan x="648.101597" y="317.520181">+</tspan>
                </text>
                <text id="+-copy-4" transform="translate(203.601597, 1047.020181) rotate(-30.000000) translate(-203.601597, -1047.020181) " font-family="Eraser-Regular, Eraser" font-size="80" font-weight="normal" fill="#FFFFFF">
                    <tspan x="180.101597" y="1078.52018">+</tspan>
                </text>
                <g id="Group-6" transform="translate(1060.000000, 350.000000)" fill-rule="nonzero" fill="#FFFFFF">
                    <path d="M15.52,14.064 C16.072,14.064 16.52,13.616 16.52,13.064 C16.52,11.626 17.074,10.268 18.076,9.236 C18.46,8.84 18.452,8.208 18.056,7.822 C17.66,7.438 17.028,7.446 16.642,7.842 C15.274,9.248 14.52,11.104 14.52,13.064 C14.52,13.616 14.968,14.064 15.52,14.064 Z M47.634,33.406 L35.01,22.724 C43.612,17.052 49.86,9.912 47.482,5.25 C45.504,1.366 38.298,0.926 28.636,4.062 C26.48,2.88 23.742,2.198 21.56,2.198 C15.494,2.198 10.56,7.132 10.56,13.198 L10.56,13.288 C2.408,19.23 -1.446,25.264 0.508,29.1 C1.616,31.276 4.432,32.332 8.3,32.332 C12.104,32.332 16.93,31.29 22.138,29.304 L24.996,49.152 C25.07,49.65 25.496,50.01 25.986,50.01 C26.032,50.01 26.08,50.006 26.128,50 C26.676,49.922 27.054,49.414 26.976,48.868 L24.05,28.54 C25.574,27.902 27.118,27.204 28.678,26.41 C30.242,25.614 31.776,24.746 33.26,23.834 C33.29,23.866 33.306,23.908 33.342,23.938 L46.342,34.938 C46.528,35.096 46.758,35.174 46.986,35.174 C47.27,35.174 47.552,35.054 47.752,34.82 C48.108,34.394 48.056,33.764 47.634,33.406 Z M12.562,13.198 C12.562,8.236 16.6,4.198 21.562,4.198 C24.39,4.198 28.478,5.584 29.826,7.572 C30.272,8.23 30.352,8.854 30.08,9.532 C28.418,13.68 17.95,19.036 13.614,17.966 C12.55,17.704 12.558,15.1 12.562,13.546 L12.562,13.198 Z M27.77,24.626 C14.998,31.134 4.092,31.728 2.29,28.192 C0.956,25.578 4.352,20.58 10.628,15.736 C10.78,17.594 11.302,19.456 13.134,19.908 C13.652,20.038 14.23,20.098 14.85,20.098 C20.606,20.098 30.092,14.882 31.936,10.276 C32.454,8.98 32.296,7.658 31.48,6.452 C31.26,6.126 30.992,5.814 30.688,5.52 C38.3,3.294 44.352,3.508 45.702,6.158 C47.486,9.662 40.562,18.106 27.77,24.626 Z" id="Shape"></path>
                </g>
                <g id="Group-4" transform="translate(1888.000000, 664.000000)" fill-rule="nonzero" fill="#FFFFFF">
                    <path d="M48,23 C48,22.882 47.97,22.77 47.932,22.666 C47.234,10.054 36.784,0 24,0 C15.882,0 8.708,4.06 4.362,10.246 C4.234,10.354 4.134,10.486 4.072,10.644 C1.502,14.464 0,19.06 0,24 C0,37.234 10.766,48 24,48 C28.94,48 33.536,46.498 37.356,43.928 C37.514,43.868 37.646,43.766 37.754,43.638 C43.94,39.292 48,32.118 48,24 C48,23.73 47.968,23.468 47.96,23.2 C47.974,23.134 48,23.072 48,23 Z M45.898,26 L29,26 C28.448,26 28,26.448 28,27 C28,27.552 28.448,28 29,28 L45.618,28 C45.49,28.688 45.33,29.364 45.14,30.028 C45.092,30.022 45.05,30 45,30 L33,30 C32.448,30 32,30.448 32,31 C32,31.552 32.448,32 33,32 L44.472,32 C44.204,32.684 43.904,33.352 43.572,34 L19,34 C18.448,34 18,34.448 18,35 C18,35.552 18.448,36 19,36 L42.414,36 C41.962,36.692 41.482,37.364 40.956,38 L29,38 C28.448,38 28,38.448 28,39 C28,39.552 28.448,40 29,40 L39.052,40 C38.286,40.722 37.472,41.392 36.608,42 L23,42 C22.448,42 22,42.448 22,43 C22,43.552 22.448,44 23,44 L33.11,44 C30.33,45.272 27.25,46 24,46 C11.87,46 2,36.13 2,24 C2,21.176 2.554,18.484 3.528,16 L7,16 C7.552,16 8,15.552 8,15 C8,14.448 7.552,14 7,14 L4.428,14 C4.78,13.312 5.164,12.644 5.584,12 L17,12 C17.552,12 18,11.552 18,11 C18,10.448 17.552,10 17,10 L7.044,10 C7.634,9.286 8.284,8.626 8.958,7.992 C8.972,7.992 8.984,8 9,8 L15,8 C15.552,8 16,7.552 16,7 C16,6.448 15.552,6 15,6 L11.392,6 C14.966,3.488 19.31,2 24,2 C35.454,2 44.884,10.804 45.898,22 L41,22 C40.448,22 40,22.448 40,23 C40,23.552 40.448,24 41,24 L46,24 C46,24.676 45.958,25.34 45.898,26 Z" id="Shape"></path>
                </g>
                <g id="Group-5" transform="translate(640.000000, 949.000000)" fill-rule="nonzero" fill="#FFFFFF">
                    <path d="M19,10 C18.788,10 18.584,10.024 18.374,10.032 C18.32,10.022 18.272,10 18.216,10 C18.122,10 18.038,10.03 17.952,10.054 C7.964,10.602 0,18.878 0,29 C0,39.476 8.524,48 19,48 C19.806,48 20.594,47.934 21.372,47.836 C21.38,47.836 21.388,47.84 21.398,47.84 C21.442,47.84 21.484,47.818 21.528,47.812 C26.876,47.096 31.52,44.158 34.502,39.946 C34.612,39.856 34.692,39.738 34.754,39.606 C36.804,36.576 38,32.924 38,29 C38,18.524 29.476,10 19,10 Z M17.138,12.108 C17.068,12.954 17.022,13.86 17.292,14.514 C17.534,15.096 18.572,16.694 19.78,16.694 C20.602,16.694 21.066,15.976 21.404,15.454 C21.406,15.452 21.408,15.448 21.41,15.446 C21.458,15.512 21.504,15.576 21.544,15.63 C21.792,15.97 22.026,16.29 22.326,16.506 C22.73,16.798 23.296,16.968 23.896,17.148 C24.1,17.208 24.398,17.298 24.656,17.392 C24.624,17.416 24.592,17.438 24.564,17.458 C24.216,17.704 23.886,17.936 23.666,18.242 C23.174,18.924 22.808,19.954 22.42,21.044 C21.998,22.234 21.416,23.868 20.962,24.176 C20.796,24.204 20.322,24.092 20.032,24.028 C19.13,23.832 17.774,23.536 17.294,24.702 C17.004,25.4 17.18,26.166 17.714,26.982 C17.302,26.674 16.886,26.366 16.468,26.062 C14.968,24.968 13.416,23.836 12.766,22.934 C12.276,22.256 11.518,20.814 11.364,20.16 C11.294,19.862 11.396,19.132 11.478,18.546 C11.654,17.286 11.834,15.984 11.202,15.106 C10.95,14.758 10.576,14.596 10.172,14.5 C12.248,13.23 14.606,12.384 17.138,12.108 Z M23.522,42.014 C23.3,42.748 21.926,44.616 20.884,45.89 C20.264,45.958 19.638,46 19,46 C9.626,46 2,38.374 2,29 C2,23.85 4.31,19.238 7.938,16.118 C8.334,16.268 8.778,16.32 9.1,16.352 C9.248,16.368 9.468,16.39 9.624,16.416 C9.7,16.824 9.572,17.744 9.498,18.27 C9.376,19.136 9.262,19.956 9.418,20.618 C9.664,21.662 10.596,23.342 11.144,24.104 C11.982,25.264 13.588,26.436 15.29,27.678 C17.42,29.232 20.042,31.146 20.324,32.652 C20.232,32.718 20.114,32.794 20.024,32.852 C19.5,33.192 18.784,33.654 18.784,34.476 C18.784,35.914 20.25,36.94 21.666,37.934 C22.39,38.442 23.384,39.138 23.556,39.554 C23.73,39.98 23.712,41.382 23.522,42.014 Z M32.932,38.714 C30.762,41.818 27.588,44.166 23.88,45.278 C24.558,44.336 25.222,43.302 25.436,42.592 C25.7,41.714 25.818,39.796 25.402,38.79 C25.006,37.836 23.94,37.088 22.812,36.298 C22.252,35.904 21.178,35.152 20.868,34.692 C20.946,34.636 21.036,34.58 21.106,34.534 C21.63,34.194 22.346,33.732 22.346,32.91 C22.346,31.846 21.812,30.85 21.002,29.896 C21.59,30.256 22.132,30.54 22.53,30.704 C23.316,31.028 24.322,30.904 25.386,30.772 C26,30.696 26.928,30.58 27.188,30.686 C27.298,30.756 27.552,31.07 27.704,31.256 C28.006,31.628 28.29,31.978 28.648,32.198 C29.25,32.57 30.102,32.73 31.006,32.896 C31.65,33.014 32.85,33.236 33.058,33.498 C33.392,33.964 33.326,36.4 32.932,38.714 Z M35.21,34.116 C35.134,33.392 34.978,32.748 34.676,32.33 C34.024,31.422 32.672,31.172 31.366,30.93 C30.748,30.816 29.978,30.672 29.702,30.502 C29.61,30.438 29.392,30.172 29.25,29.996 C28.88,29.542 28.498,29.074 27.986,28.86 C27.198,28.532 26.194,28.658 25.134,28.792 C24.518,28.868 23.59,28.982 23.292,28.86 C21.846,28.26 19.934,26.792 19.33,25.928 C19.428,25.948 19.522,25.97 19.602,25.986 C20.398,26.16 21.222,26.34 21.87,25.94 C23.062,25.204 23.692,23.432 24.302,21.718 C24.624,20.808 24.96,19.866 25.27,19.434 C25.334,19.366 25.562,19.204 25.714,19.096 C26.334,18.66 27.182,18.06 27.028,17.102 C26.84,15.946 25.582,15.568 24.47,15.234 C24.136,15.134 23.632,14.982 23.508,14.896 C23.438,14.834 23.27,14.606 23.16,14.454 C22.73,13.864 22.196,13.132 21.346,13.132 C20.526,13.132 20.062,13.848 19.724,14.37 C19.702,14.404 19.678,14.44 19.652,14.48 C19.45,14.26 19.224,13.952 19.14,13.748 C19.026,13.474 19.11,12.5 19.152,12.008 C28.456,12.09 36,19.678 36,29 C36,30.782 35.722,32.5 35.21,34.116 Z M42,0 C38.692,0 36,2.692 36,6 C36,9.308 38.692,12 42,12 C45.308,12 48,9.308 48,6 C48,2.692 45.308,0 42,0 Z M42,10 C39.794,10 38,8.206 38,6 C38,3.794 39.794,2 42,2 C44.206,2 46,3.794 46,6 C46,8.206 44.206,10 42,10 Z" id="Shape"></path>
                </g>
                <g id="Group" transform="translate(2512.000000, 752.000000)" fill-rule="nonzero" fill="#FFFFFF">
                    <path d="M14.452,32.172 L8.452,36.172 C8.202,36.338 8.042,36.608 8.01,36.906 C7.982,37.204 8.088,37.5 8.3,37.712 L12.3,41.712 C12.488,41.9 12.744,42.004 13.008,42.004 C13.042,42.004 13.074,42.002 13.106,42 C13.404,41.972 13.674,41.81 13.84,41.56 L17.84,35.56 C18.102,35.164 18.052,34.634 17.714,34.298 L15.714,32.298 C15.378,31.96 14.852,31.906 14.452,32.172 Z M15.722,35.132 L12.852,39.436 L10.578,37.16 L14.882,34.292 L15.722,35.132 Z M43.254,7.156 C36.376,0.278 24.75,0.278 17.872,7.156 C17.85,7.176 17.844,7.206 17.824,7.228 C17.662,7.36 17.486,7.472 17.336,7.622 C17.328,7.628 17.326,7.64 17.32,7.648 C17.27,7.698 17.24,7.762 17.204,7.822 C17.172,7.874 17.134,7.92 17.112,7.976 C17.094,8.026 17.092,8.08 17.082,8.132 C17.066,8.208 17.048,8.284 17.05,8.36 C17.05,8.37 17.046,8.378 17.046,8.388 L18.282,28.86 L16.612,27.184 C15.612,26.184 14.078,26.016 12.904,26.76 L0.494,34.142 C0.228,34.3 0.052,34.57 0.014,34.878 C-0.024,35.186 0.082,35.492 0.3,35.71 L14.3,49.71 C14.49,49.898 14.744,50.002 15.008,50.002 C15.05,50.002 15.092,50 15.132,49.994 C15.438,49.954 15.71,49.776 15.868,49.51 L23.19,37.108 C23.95,35.914 23.78,34.38 22.782,33.378 L21.14,31.73 L41.2,32.522 L41.24,32.522 C41.368,32.522 41.496,32.498 41.618,32.448 C41.74,32.398 41.848,32.324 41.94,32.234 C41.942,32.232 41.944,32.232 41.946,32.23 C48.34,25.836 50.972,14.874 43.254,7.156 Z M21.366,34.792 L21.366,34.792 C21.702,35.126 21.758,35.638 21.488,36.064 L14.804,47.384 L2.626,35.206 L13.956,28.464 C14.356,28.212 14.866,28.268 15.198,28.6 L21.366,34.792 Z M20.138,26.436 L19.072,8.774 C20.804,7.358 23.518,7.434 25.12,9.034 C25.962,9.876 26.418,10.988 26.402,12.166 C26.384,13.344 25.902,14.466 25.042,15.326 C25,15.37 24.98,15.422 24.948,15.47 C24.908,15.526 24.86,15.572 24.832,15.636 L20.138,26.436 Z M26.578,16.642 C28.344,14.998 31.108,15.022 32.83,16.74 C34.542,18.452 34.528,21.144 32.834,22.932 L21.398,28.56 L26.578,16.642 Z M40.788,30.508 L23.37,29.82 L33.898,24.638 C33.95,24.612 33.984,24.57 34.03,24.536 C34.074,24.504 34.124,24.486 34.164,24.448 C34.166,24.446 34.166,24.444 34.168,24.444 C35.87,22.748 38.836,22.75 40.532,24.448 C41.384,25.298 41.852,26.43 41.852,27.632 C41.852,28.7 41.466,29.7 40.788,30.508 Z M41.946,23.034 C40.366,21.452 38.032,20.904 35.91,21.358 C36.436,19.258 35.896,16.982 34.242,15.328 C32.608,13.694 30.318,13.128 28.214,13.6 C28.324,13.142 28.396,12.674 28.402,12.196 C28.424,10.474 27.762,8.85 26.534,7.622 C25.564,6.652 24.306,6.082 22.992,5.878 C29.006,2.77 36.934,3.664 41.84,8.57 C47.144,13.874 46.838,20.956 43.744,26.53 C43.52,25.212 42.91,23.996 41.946,23.034 Z" id="Shape"></path>
                </g>
                <g id="Group-3" transform="translate(1517.000000, 1021.000000)" fill-rule="nonzero" fill="#FFFFFF">
                    <path d="M26.97,10.758 C26.86,10.312 26.458,10 26,10 L22,10 C21.542,10 21.14,10.312 21.028,10.758 L19.028,18.758 C18.954,19.058 19.02,19.374 19.21,19.616 C19.4,19.858 19.692,20 20,20 L28,20 C28.308,20 28.6,19.858 28.788,19.616 C28.978,19.374 29.044,19.056 28.97,18.758 L26.97,10.758 Z M21.282,18 L22.782,12 L25.22,12 L26.72,18 L21.282,18 Z M46.92,46.608 L40.92,32.608 C40.91,32.586 40.888,32.574 40.876,32.552 C40.822,32.444 40.746,32.35 40.652,32.266 C40.626,32.242 40.608,32.212 40.578,32.192 C40.568,32.186 40.564,32.174 40.554,32.168 L34.942,28.426 C34.836,27.52 34.498,26.692 33.974,26 L36,26 C36.302,26 36.59,25.862 36.776,25.626 C36.968,25.39 37.038,25.08 36.974,24.784 L33.322,8.35 C33.016,6.966 31.81,6 30.394,6 L25,6 L25,1 C25,0.448 24.552,0 24,0 C23.448,0 23,0.448 23,1 L23,6 L17.602,6 C16.186,6 14.98,6.966 14.674,8.35 L11.022,24.784 C10.958,25.08 11.028,25.388 11.22,25.626 C11.41,25.862 11.698,26 12,26 L14.026,26 C13.502,26.692 13.164,27.52 13.058,28.426 L7.446,32.168 C7.436,32.174 7.432,32.184 7.424,32.19 C7.394,32.212 7.376,32.242 7.348,32.266 C7.254,32.35 7.18,32.442 7.124,32.55 C7.112,32.572 7.09,32.584 7.08,32.606 L1.08,46.606 C0.864,47.112 1.098,47.7 1.606,47.918 C1.734,47.974 1.868,48 2,48 C2.386,48 2.756,47.774 2.92,47.394 L5.23,42 L13,42 L13,43 C13,43.552 13.448,44 14,44 L23,44 L23,47 C23,47.552 23.448,48 24,48 C24.552,48 25,47.552 25,47 L25,44 L34,44 C34.552,44 35,43.552 35,43 L35,42 L42.77,42 L45.08,47.394 C45.244,47.774 45.614,48 46,48 C46.132,48 46.266,47.974 46.394,47.92 C46.902,47.702 47.136,47.114 46.92,46.608 Z M6.088,40 L8.238,34.984 L12,40 L6.088,40 Z M13,38 L9.434,33.246 L13,30.868 L13,38 Z M13.246,24 L16.632,8.784 C16.732,8.322 17.136,8 17.606,8 L30.398,8 C30.868,8 31.27,8.324 31.372,8.784 L34.754,24 L13.246,24 Z M33,42 L25,42 L25,29 C25,28.448 24.552,28 24,28 C23.448,28 23,28.448 23,29 L23,42 L15,42 L15,29 C15,27.346 16.346,26 18,26 L30,26 C31.654,26 33,27.346 33,29 L33,42 Z M35,30.868 L38.568,33.246 L35,38.002 L35,30.868 Z M36,40 L39.762,34.984 L41.912,40 L36,40 Z" id="Shape"></path>
                </g>
                <g id="Group-2" transform="translate(2343.000000, 320.000000)" fill-rule="nonzero" fill="#FFFFFF">
                    <path d="M25.834,55.834 C25.304,55.834 24.794,55.624 24.42,55.248 L10.752,41.58 C9.97,40.798 9.97,39.534 10.752,38.752 L40.886,8.618 C44.826,4.678 47.73,2.992 51.244,2.602 L56.264,2.044 C58.372,1.802 60.452,2.536 61.96,4.042 C63.464,5.546 64.192,7.624 63.958,9.738 L63.4,14.756 C63.008,18.272 61.32,21.176 57.382,25.112 L27.248,55.248 C26.872,55.624 26.364,55.834 25.834,55.834 L25.834,55.834 Z M14.996,40.166 L25.834,51.006 L54.556,22.284 C58.274,18.566 59.19,16.408 59.426,14.314 L59.982,9.296 C60.084,8.394 59.774,7.51 59.132,6.87 C58.49,6.23 57.612,5.92 56.706,6.018 L51.686,6.576 C49.592,6.81 47.436,7.726 43.716,11.446 L14.996,40.166 L14.996,40.166 Z M36,66 C35.488,66 34.976,65.804 34.586,65.414 L24.586,55.414 C23.804,54.632 23.804,53.368 24.586,52.586 C25.368,51.804 26.632,51.804 27.414,52.586 L36,61.172 L38.596,58.576 C39.502,57.67 40,56.466 40,55.186 L40,38 C40,36.894 40.894,36 42,36 C43.106,36 44,36.894 44,38 L44,55.186 C44,57.536 43.086,59.744 41.424,61.404 L37.414,65.414 C37.024,65.804 36.512,66 36,66 L36,66 Z M19,49 C18.488,49 17.976,48.804 17.586,48.414 C16.804,47.632 16.804,46.368 17.586,45.586 L30.586,32.586 C31.368,31.804 32.632,31.804 33.414,32.586 C34.196,33.368 34.196,34.632 33.414,35.414 L20.414,48.414 C20.024,48.804 19.512,49 19,49 Z M53.314,18.686 C52.802,18.686 52.29,18.49 51.9,18.1 L47.9,14.1 C47.118,13.318 47.118,12.054 47.9,11.272 C48.682,10.49 49.946,10.49 50.728,11.272 L54.728,15.272 C55.51,16.054 55.51,17.318 54.728,18.1 C54.338,18.492 53.826,18.686 53.314,18.686 Z M12,42 C11.488,42 10.976,41.804 10.586,41.414 L0.586,31.414 C-0.196,30.632 -0.196,29.368 0.586,28.586 L4.596,24.576 C6.256,22.916 8.464,22 10.814,22 L28,22 C29.104,22 30,22.896 30,24 C30,25.104 29.104,26 28,26 L10.814,26 C9.534,26 8.33,26.5 7.424,27.404 L4.828,30 L13.414,38.586 C14.196,39.368 14.196,40.632 13.414,41.414 C13.024,41.804 12.512,42 12,42 Z" id="Shape"></path>
                </g>
            </g>
        </g>
    </g>
</svg>